<?xml version="1.0" encoding="utf-8"?>
<!-- Generator: Adobe Illustrator 21.0.2, SVG Export Plug-In . SVG Version: 6.00 Build 0)  -->
<svg version="1.1" id="Layer_1" xmlns="http://www.w3.org/2000/svg" xmlns:xlink="http://www.w3.org/1999/xlink" x="0px" y="0px"
	 viewBox="0 0 219.8 71.2" style="enable-background:new 0 0 219.8 71.2;" xml:space="preserve">
<style type="text/css">
	.st0{fill:#41525F;}
	.st1{fill:#26A7DF;}
</style>
<g>
	<g>
		<path class="st0" d="M80.4,21.9c0.4,0,0.6,0.2,0.6,0.5v3.8c0,0.4-0.2,0.5-0.6,0.5H73v22.1c0,0.4-0.2,0.6-0.5,0.6H68
			c-0.4,0-0.5-0.2-0.5-0.6V26.7H60c-0.4,0-0.5-0.2-0.5-0.5v-3.8c0-0.4,0.2-0.5,0.5-0.5H80.4z"/>
		<path class="st0" d="M96.4,35.4v12.3c0,0.6-0.1,0.9-0.8,1.1c-2.5,0.6-5.6,0.7-8.1,0.7c-5.3,0-8.1-0.6-8.2-6.1
			c0.1-4.8,2.6-5.8,7.3-5.8h4.5v-1.3c0-1.7-1.1-2.5-3.3-2.5h-6.4c-0.4,0-0.5-0.1-0.5-0.5v-2.9c0-0.4,0.1-0.5,0.5-0.6
			c2.2-0.4,4.2-0.5,6.4-0.5C94.9,29.3,96.4,31.6,96.4,35.4z M87.1,41c-1.8,0-2.5,0.6-2.5,2.1c0,1.7,0.8,2.2,3,2.2
			c0.7,0,2.5-0.1,3.6-0.4V41H87.1z"/>
		<path class="st0" d="M118.1,37.8v11c0,0.4-0.2,0.6-0.6,0.6h-4.2c-0.4,0-0.5-0.2-0.5-0.6v-9.6c0-5.1-0.5-5.3-3.8-5.3h-3.2v15
			c0,0.4-0.2,0.6-0.5,0.6H101c-0.4,0-0.5-0.2-0.5-0.6V30.4c0-0.4,0.2-0.5,0.5-0.5c2.4-0.5,5.8-0.6,8.5-0.6
			C116.4,29.3,118.1,30.6,118.1,37.8z"/>
		<path class="st0" d="M127,21.9c0.4,0,0.5,0.2,0.5,0.6v13.9l5.1-6.5c0.2-0.2,0.4-0.4,0.7-0.4h4.8c0.6,0,0.6,0.3,0.3,0.7l-5.7,7.1
			l7.3,11.1c0.2,0.5,0.4,1-0.6,1h-4.5c-0.4,0-0.6-0.1-0.8-0.4l-6.6-10.5v10.3c0,0.4-0.2,0.6-0.5,0.6h-4.2c-0.4,0-0.5-0.2-0.5-0.6
			V22.4c0-0.4,0.2-0.6,0.5-0.6H127z"/>
		<path class="st0" d="M153.6,22c0.4,0.1,0.6,0.2,0.6,0.7v2.9c0,0.4-0.2,0.6-0.6,0.6h-2.8c-1.4,0-2,0.2-2,1.4v1.9h4.3
			c0.4,0,0.5,0.2,0.4,0.6l-0.5,3c-0.1,0.4-0.3,0.5-0.6,0.5h-3.6v15.2c0,0.4-0.2,0.6-0.5,0.6h-4.2c-0.4,0-0.5-0.2-0.5-0.6V33.6h-2.3
			c-0.4,0-0.6-0.2-0.6-0.5v-3c0-0.4,0.2-0.5,0.6-0.5h2.3v-2.8c0-4.5,3.1-5,6.3-5C150.9,21.7,152.3,21.8,153.6,22z"/>
		<path class="st0" d="M171.6,35.4v12.3c0,0.6-0.1,0.9-0.8,1.1c-2.5,0.6-5.6,0.7-8.1,0.7c-5.3,0-8.1-0.6-8.2-6.1
			c0.1-4.8,2.6-5.8,7.3-5.8h4.5v-1.3c0-1.7-1.1-2.5-3.3-2.5h-6.4c-0.4,0-0.5-0.1-0.5-0.5v-2.9c0-0.4,0.1-0.5,0.5-0.6
			c2.2-0.4,4.2-0.5,6.4-0.5C170.1,29.3,171.6,31.6,171.6,35.4z M162.3,41c-1.8,0-2.5,0.6-2.5,2.1c0,1.7,0.8,2.2,3,2.2
			c0.7,0,2.5-0.1,3.6-0.4V41H162.3z"/>
		<path class="st0" d="M186.9,29.7c0.4,0.1,0.6,0.2,0.6,0.7v2.9c0,0.4-0.2,0.5-0.6,0.5h-3.3c-1.8,0-2.5,0.3-2.5,1.8v13.1
			c0,0.4-0.2,0.6-0.5,0.6h-4.2c-0.4,0-0.5-0.2-0.5-0.6V34.3c0-4.5,3.2-5,6.4-5C183.2,29.3,185.6,29.4,186.9,29.7z"/>
		<path class="st0" d="M217.4,36.8l0,12c0,0.4-0.2,0.6-0.5,0.6h-4.2c-0.4,0-0.5-0.2-0.5-0.6v-9.6c0-5.1-0.5-5.3-3.4-5.3
			c-1,0-2,0.1-2.9,0.2c0.3,1,0.5,2.2,0.5,3.8l0,11c0,0.4-0.1,0.6-0.5,0.6h-4.2c-0.4,0-0.5-0.2-0.5-0.6V38c0-3.9-0.7-4.1-3.4-4.1
			h-2.4v15c0,0.4-0.2,0.6-0.5,0.6h-4.2c-0.4,0-0.5-0.2-0.5-0.6V30.4c0-0.4,0.1-0.5,0.5-0.5c2-0.4,5-0.6,6.8-0.6c2.7,0,5,0.5,6.4,1.1
			c2-0.7,4.4-1.2,6.2-1.2C215.3,29.2,217.4,30.8,217.4,36.8z"/>
	</g>
	<path class="st1" d="M50.3,30.3c-1.4-9.8-8.4-15.5-13.7-19c-0.6-0.4-1.1-0.7-1.6-1.1c-2.5-1.7-4.4-3.4-6.6-5.3
		c-0.4-0.3-0.7-0.7-1-1.1l-1.8-2l-4.2,4.5c-1.2,1.3-2.4,2.5-3.8,3.6C7.4,18.2,2.4,26,2.4,33.7c0,9.2,5.9,17.4,16.8,23.2l3.3,1.9
		l3.3-2.6l0,0c22.2-16.2-0.1-30.8-0.1-30.8C11.3,36,14.5,45,19.1,50.5c-5-3.2-11-8.9-11-16.8c0-5.9,4.3-12.2,13-19.2
		c1.6-1.3,3.1-2.7,4.4-4.2c2,1.7,4,3.3,6.2,4.7c0.5,0.3,1.1,0.7,1.7,1.1c4.7,3.1,10.1,7.8,11.1,15c1.3,8.9-1.7,15.6-10.9,22.2
		c-5.1,3.6-8.2,6.3-10.4,8.9c-2,2.4-1.5,5.9,1.4,7.1l0,0c0-0.1,2.9-4.8,11.8-10.6C50.5,49.7,51.4,38.2,50.3,30.3z"/>
</g>
</svg>
